<svg width="21" height="20" viewBox="0 0 21 20" fill="none" xmlns="http://www.w3.org/2000/svg">
<g id="Icon" clip-path="url(#clip0_1_895)">
<path id="Vector" d="M20.3333 10C20.3333 4.47715 15.8561 0 10.3333 0C4.8104 0 0.333252 4.47715 0.333252 10C0.333252 14.9912 3.99009 19.1283 8.77075 19.8785V12.8906H6.23169V10H8.77075V7.79688C8.77075 5.29063 10.2637 3.90625 12.5479 3.90625C13.6417 3.90625 14.7864 4.10156 14.7864 4.10156V6.5625H13.5254C12.2833 6.5625 11.8958 7.3334 11.8958 8.125V10H14.6692L14.2258 12.8906H11.8958V19.8785C16.6764 19.1283 20.3333 14.9912 20.3333 10Z" fill="#333333"/>
</g>
<defs>
<clipPath id="clip0_1_895">
<rect width="20" height="20" fill="white" transform="translate(0.333252)"/>
</clipPath>
</defs>
</svg>
