<svg width="21" height="20" viewBox="0 0 21 20" fill="none" xmlns="http://www.w3.org/2000/svg">
<g id="Icon" clip-path="url(#clip0_1_901)">
<path id="Vector" d="M18.8528 0H1.80981C0.993408 0 0.333252 0.644531 0.333252 1.44141V18.5547C0.333252 19.3516 0.993408 20 1.80981 20H18.8528C19.6692 20 20.3333 19.3516 20.3333 18.5586V1.44141C20.3333 0.644531 19.6692 0 18.8528 0ZM6.26685 17.043H3.2981V7.49609H6.26685V17.043ZM4.78247 6.19531C3.82935 6.19531 3.05981 5.42578 3.05981 4.47656C3.05981 3.52734 3.82935 2.75781 4.78247 2.75781C5.73169 2.75781 6.50122 3.52734 6.50122 4.47656C6.50122 5.42188 5.73169 6.19531 4.78247 6.19531ZM17.3762 17.043H14.4114V12.4023C14.4114 11.2969 14.3918 9.87109 12.8684 9.87109C11.3254 9.87109 11.0911 11.0781 11.0911 12.3242V17.043H8.13013V7.49609H10.9739V8.80078H11.0129C11.4075 8.05078 12.3762 7.25781 13.8176 7.25781C16.8215 7.25781 17.3762 9.23438 17.3762 11.8047V17.043Z" fill="#333333"/>
</g>
<defs>
<clipPath id="clip0_1_901">
<rect width="20" height="20" fill="white" transform="translate(0.333252)"/>
</clipPath>
</defs>
</svg>
