<svg width="21" height="20" viewBox="0 0 21 20" fill="none" xmlns="http://www.w3.org/2000/svg">
<g id="Icon" clip-path="url(#clip0_1_898)">
<path id="Vector" d="M6.62505 18.1251C14.1704 18.1251 18.2985 11.8724 18.2985 6.45167C18.2985 6.27589 18.2946 6.0962 18.2868 5.92042C19.0898 5.33967 19.7828 4.62033 20.3333 3.7962C19.5854 4.12896 18.7913 4.34627 17.9782 4.44074C18.8343 3.92755 19.4754 3.12135 19.7825 2.17159C18.977 2.64892 18.0962 2.98563 17.1778 3.1673C16.559 2.50976 15.7407 2.07439 14.8497 1.9285C13.9586 1.78261 13.0442 1.93433 12.248 2.3602C11.4518 2.78607 10.8181 3.46238 10.4448 4.28455C10.0715 5.10672 9.97944 6.02897 10.1829 6.9087C8.552 6.82686 6.95653 6.40321 5.4999 5.6652C4.04327 4.9272 2.758 3.89132 1.72739 2.62472C1.20358 3.52782 1.0433 4.59649 1.27911 5.61353C1.51492 6.63057 2.12914 7.51966 2.99692 8.10011C2.34544 8.07943 1.70823 7.90402 1.13794 7.58839V7.63917C1.13736 8.58691 1.465 9.50561 2.06518 10.2391C2.66535 10.9726 3.50102 11.4756 4.43013 11.6626C3.82663 11.8277 3.19324 11.8518 2.57895 11.7329C2.84113 12.548 3.35123 13.2609 4.03806 13.7721C4.72489 14.2833 5.55419 14.5673 6.41021 14.5845C4.95694 15.726 3.16173 16.3452 1.31372 16.3423C0.985991 16.3418 0.658584 16.3217 0.333252 16.2821C2.21063 17.4866 4.39453 18.1263 6.62505 18.1251Z" fill="#333333"/>
</g>
<defs>
<clipPath id="clip0_1_898">
<rect width="20" height="20" fill="white" transform="translate(0.333252)"/>
</clipPath>
</defs>
</svg>
